# xmcd
#
# Track frame offsets: 
#        150
#        21873
#        41513
#        62304
#        79969
#        103264
#        125760
#        150897
#        168630
#        193821
#        211525
#        236810
#        263036
#        293240
#
# Disc length: 4728 seconds
#
# Revision: 0
# Processed by: cddbd v1.5.2PL0 Copyright (c) Steve Scherf et al.
# Submitted via: ExactAudioCopy v1.0b3
#
DISCID=bf12760e
DTITLE=Confessor - Uncontrolled
DYEAR=2012
DGENRE=Metal
TTITLE0=Collapse Into Despair
TTITLE1=Alone
TTITLE2=Condemned
TTITLE3=Uncontrolled
TTITLE4=Prepare Yourself 
TTITLE5=Suffer
TTITLE6=The Secret
TTITLE7=Deception
TTITLE8=Eve Of Salvation
TTITLE9=Uncontrolled (Vile Vibes Version)
TTITLE10=The Secret (MMX Version)
TTITLE11=Words Of Praise (Live at Fame City)
TTITLE12=Addictive Bind (Live In Raleigh)
TTITLE13=Data Track
EXTD=
EXTT0=
EXTT1=
EXTT2=
EXTT3=
EXTT4=
EXTT5=
EXTT6=
EXTT7=
EXTT8=
EXTT9=
EXTT10=
EXTT11=
EXTT12=
EXTT13=
PLAYORDER=
